<?xml version="1.0" standalone="no"?>
<!DOCTYPE svg PUBLIC "-//W3C//DTD SVG 20010904//EN"
 "http://www.w3.org/TR/2001/REC-SVG-20010904/DTD/svg10.dtd">
<svg version="1.0" xmlns="http://www.w3.org/2000/svg"
 width="1164.000000pt" height="1164.000000pt" viewBox="0 0 1164.000000 1164.000000"
 preserveAspectRatio="xMidYMid meet">
<metadata>
Created by potrace 1.11, written by Peter Selinger 2001-2013
</metadata>
<g transform="translate(0.000000,1164.000000) scale(0.100000,-0.100000)"
fill="#000000" stroke="none">
<path d="M3790 10227 c-79 -18 -174 -73 -226 -130 -109 -121 -228 -487 -263
-809 -18 -159 -11 -434 13 -543 4 -14 -5 -27 -32 -46 -84 -60 -214 -183 -292
-276 -243 -290 -413 -663 -494 -1082 -33 -167 -59 -392 -52 -439 4 -20 8 -50
10 -67 2 -16 13 -51 25 -77 11 -27 17 -49 13 -49 -4 -1 -43 -1 -87 0 -319 8
-643 -174 -780 -436 -24 -46 -32 -54 -78 -69 -265 -86 -500 -319 -572 -567
-12 -43 -24 -61 -46 -74 -16 -10 -29 -21 -29 -25 0 -4 -6 -8 -13 -8 -39 0
-233 -241 -266 -331 -7 -19 -16 -41 -20 -49 -16 -31 -40 -128 -52 -210 -9 -61
-18 -92 -34 -110 -95 -108 -179 -303 -202 -468 -14 -99 -6 -260 16 -347 23
-88 83 -219 133 -293 17 -26 77 -94 133 -152 55 -58 155 -166 220 -240 66 -74
168 -184 226 -245 l107 -110 -74 -518 c-40 -285 -73 -522 -72 -525 1 -4 -1
-14 -5 -22 -3 -8 -15 -83 -27 -166 -23 -165 -19 -234 19 -335 42 -110 134
-215 237 -271 62 -33 185 -68 243 -68 24 0 158 22 297 50 2668 525 5468 528
8104 9 316 -63 348 -66 442 -44 210 48 363 199 407 403 15 71 14 138 -5 252
-8 52 -17 111 -20 130 -2 19 -39 275 -80 567 l-76 533 128 138 c147 157 181
195 280 307 39 44 107 117 151 162 177 180 268 375 280 603 12 221 -55 444
-186 621 -41 54 -49 73 -55 124 -16 143 -71 290 -156 416 -53 77 -156 180
-214 214 -37 21 -46 33 -55 72 -61 239 -307 491 -561 572 -64 21 -66 22 -99
86 -40 78 -152 201 -230 254 -86 58 -191 108 -288 136 -48 14 -88 26 -88 28
-1 1 -15 25 -31 52 -16 28 -50 82 -75 121 -43 64 -48 79 -58 160 -6 49 -13
109 -16 134 -10 74 -54 295 -71 347 -8 26 -18 62 -20 78 -19 101 -148 403
-238 556 -111 189 -326 433 -469 534 -31 22 -55 45 -52 52 16 44 27 250 22
403 -7 199 -23 308 -73 499 -35 135 -46 167 -112 320 -80 186 -256 294 -447
275 -433 -43 -797 -162 -1090 -359 l-65 -43 -75 24 c-222 73 -448 107 -705
107 -272 1 -469 -30 -731 -113 l-55 -17 -95 60 c-205 130 -482 241 -729 291
-232 47 -388 61 -470 43z"/>
</g>
</svg>
